<svg width="409" height="566" viewBox="0 0 409 566" fill="none" xmlns="http://www.w3.org/2000/svg">
<path d="M404.259 235.116C402.371 244.376 400.214 253.365 397.787 261.814C396.439 266.758 395 271.522 393.472 276.106C383.405 306.67 370.01 331.93 354.279 352.425V352.514C353.02 354.042 351.852 355.571 350.683 357.009C338.998 371.303 326.053 382.898 312.21 392.157C312.21 392.157 312.21 392.246 312.121 392.246C309.244 394.224 306.368 396.112 303.401 397.731C303.311 397.731 303.311 397.731 303.311 397.731C287.851 406.63 271.49 412.652 254.68 415.978C251.804 416.518 248.928 416.967 245.961 417.327L246.23 416.788L212.971 401.686L179.621 386.584L25.3663 316.469C24.2874 314.85 23.2991 313.142 22.2202 311.525C3.79231 280.602 -4.11831 243.387 2.08439 202.127C2.71339 198.352 3.34239 194.576 4.15158 190.801C6.93843 177.318 11.3426 163.204 17.4557 148.912C22.2202 137.405 28.0625 125.81 35.0744 113.944C37.8613 109.269 40.7377 104.685 43.7931 99.9216C48.4681 92.8202 53.5919 85.6292 59.0749 78.3476C132.606 -18.1054 242.813 -7.58923 295.489 16.3228C297.377 17.2216 299.355 18.1203 301.333 19.1097C310.501 23.7835 320.3 29.8967 330.188 37.4469C344.391 48.413 358.684 62.3473 371.089 79.1568C377.022 87.1569 382.505 95.6966 387.179 104.956C397.517 124.463 404.977 146.755 407.674 171.745C409.742 191.25 408.844 212.463 404.259 235.116Z" fill="#EA5854"/>
<path d="M246.23 416.788L245.961 417.327C243.713 417.686 241.466 417.956 239.129 418.226C205.689 421.282 169.013 420.653 145.912 436.025C145.822 436.025 145.731 436.025 145.731 436.114C140.788 439.53 136.472 443.396 132.877 448.429C101.145 518.364 80.7407 549.378 67.7063 561.962C62.1326 560.435 56.2903 558.277 49.9969 555.4V555.49L49.7272 555.4C46.9404 554.142 44.4232 552.883 41.9968 551.536C41.2771 551.176 40.6481 550.727 39.9285 550.367C38.0415 549.288 36.0627 548.12 34.3548 547.041C34.4443 546.142 34.4443 545.153 34.535 544.074C34.9838 539.94 35.7941 534.995 37.1416 529.062C41.9061 508.027 53.4117 474.947 76.9634 423.08C78.4922 416.518 78.5818 410.045 77.5924 403.573V403.394C73.0976 376.426 49.0971 349.909 29.9495 323.21C28.3312 320.963 26.8034 318.715 25.3652 316.468L179.619 386.583L212.968 401.685L246.23 416.788Z" fill="#E5C294"/>
<path d="M135.573 367.167L82.7172 483.487L82.6276 483.577L49.9969 555.4V555.49L49.7271 555.4C46.9403 554.142 44.4232 552.883 41.9967 551.536C41.2771 551.176 40.6481 550.727 39.9284 550.367C38.0414 549.288 36.0626 548.12 34.3547 547.041C33.6351 546.592 32.9165 546.142 32.3771 545.692C29.8599 544.074 27.6126 542.366 25.4547 540.749C20.3309 536.793 16.1954 532.838 13.0493 529.153L15.2967 524.837L19.881 516.027L77.5912 403.484V403.394L78.7597 401.147L103.569 352.695L135.573 367.167Z" fill="#F5DDA8"/>
<path d="M94.1222 565.983C87.002 566.007 78.0754 565.013 67.703 561.981C62.1746 560.458 56.2593 558.265 50.0389 555.44L135.534 367.194L167.535 381.728L145.948 435.998L94.1222 565.983Z" fill="#F5DDA8"/>
<g opacity="0.04">
<path d="M354.26 352.468C353.059 353.998 351.858 355.528 350.634 357C350.737 356.72 350.848 356.422 350.98 356.131C351.701 354.546 352.848 353.296 354.26 352.468Z" fill="#040000"/>
</g>
<path d="M283.18 322.816C310.811 322.816 333.211 300.416 333.211 272.785C333.211 245.153 310.811 222.753 283.18 222.753C255.548 222.753 233.148 245.153 233.148 272.785C233.148 300.416 255.548 322.816 283.18 322.816Z" fill="white"/>
</svg>
